<svg xmlns="http://www.w3.org/2000/svg" width="246.8" height="336.19" viewBox="0 0 246.8 336.19">
	<style type="text/css">
		.st0{fill:#ffdd0c;}
	</style>
	<path class="st0" d="M174.35,256.01C174.35,260.04 171.2,263.3 167.31,263.3L79.48,263.3C75.59,263.3 72.44,260.04 72.44,256.01L72.44,254.8C72.44,250.77 75.59,247.51 79.48,247.51L167.31,247.51C171.2,247.51 174.35,250.77 174.35,254.8Z"/>
	<path class="st0" d="M170.91,280.3C170.91,284.32 167.76,287.59 163.87,287.59L82.92,287.59C79.03,287.59 75.88,284.32 75.88,280.3L75.88,279.09C75.88,275.06 79.03,271.8 82.92,271.8L163.87,271.8C167.76,271.8 170.91,275.06 170.91,279.09Z"/>
	<path class="st0" d="M167.46,304.59C167.46,308.61 164.31,311.87 160.42,311.87L86.37,311.87C82.48,311.87 79.33,308.61 79.33,304.59L79.33,303.37C79.33,299.35 82.48,296.09 86.37,296.09L160.42,296.09C164.31,296.09 167.46,299.35 167.46,303.37Z"/>
	<path class="st0" d="M135.2,320.4L123.45,320.4L123.45,320.37L111.05,320.37C107.17,320.37 104.02,323.64 104.02,327.66L104.02,328.87C104.02,332.9 107.17,336.16 111.05,336.16L123.12,336.16L123.12,336.19L135.2,336.19C139.09,336.19 142.25,332.92 142.25,328.9L142.25,327.68C142.25,323.66 139.09,320.4 135.2,320.4"/>
	<path class="st0" d="M107.68,14.65C106.25,14.65 105.09,13.48 105.09,12.05C105.09,10.62 106.25,9.46 107.68,9.46C109.11,9.46 110.27,10.62 110.27,12.05C110.27,13.48 109.11,14.65 107.68,14.65M99.47,19.69C90.88,24.02 83.99,31.12 79.92,39.84C79.34,41.08 77.91,41.74 76.65,41.26C75.4,40.78 74.84,39.19 75.5,37.77C80.03,28.06 87.7,20.15 97.27,15.33C98.67,14.63 100.28,15.14 100.8,16.38C101.32,17.62 100.7,19.07 99.47,19.69M57.15,50.82C36.31,54.05 19.16,69.01 13.15,89.22C12.73,90.62 11.39,91.53 10.07,91.22C8.76,90.91 8,89.37 8.46,87.82C15.02,65.8 33.7,49.5 56.4,45.99C58,45.74 59.42,46.7 59.55,48.04C59.68,49.39 58.6,50.6 57.15,50.82M182.99,37.23C172.65,15.25 150.36,0 124.46,0C98.56,0 76.28,15.25 65.94,37.25C65.52,37.23 65.12,37.18 64.71,37.18C28.97,37.18 0,63.67 0,96.33C0,126.18 24.23,150.8 55.67,154.83L64.1,223.93C64.64,232.53 71.46,239.5 79.33,239.5L169.94,239.5C177.8,239.5 184.62,232.53 185.15,223.93L193.64,154.48C223.86,149.49 246.8,125.38 246.8,96.33C246.8,63.95 218.31,37.67 182.99,37.23"/>
</svg>