<svg xmlns="http://www.w3.org/2000/svg" width="50" height="47.86" viewBox="0 0 50 47.86">
	<style type="text/css">
		.st1{stroke:#242424;fill:none;stroke-width:2;stroke-linecap:round;stroke-linejoin:round;}
		.st0{fill:#242424;}
	</style>
	<path class="st0" d="M9.45,0L9.45,5.9L11.19,5.9L11.19,1.73L38.8,1.73L38.8,5.9L40.54,5.9L40.54,0Z"/>
	<path class="st0" d="M1.73,12.71C1.73,11.35 2.84,10.24 4.2,10.24L45.79,10.24C47.15,10.24 48.26,11.35 48.26,12.71L48.26,27.53C48.26,28.89 47.15,30 45.79,30L42.6,30L40.76,30L40.61,30L40.61,25.5L43.04,25.5L43.04,23.76L6.95,23.76L6.95,25.5L9.38,25.5L9.38,30L9.23,30L4.2,30C2.84,30 1.73,28.89 1.73,27.53ZM38.87,37.78L30.54,37.78L30.54,46.12L11.12,46.12L11.12,25.5L38.87,25.5ZM32.28,44.89L32.28,39.52L37.64,39.52ZM4.2,31.73L9.38,31.73L9.38,47.86L31.77,47.86L40.61,39.01L40.61,31.73L45.79,31.73C48.11,31.73 50,29.85 50,27.53L50,12.71C50,10.39 48.11,8.51 45.79,8.51L4.2,8.51C1.88,8.51 0,10.39 0,12.71L0,27.53C0,29.85 1.88,31.73 4.2,31.73"/>
	<path class="st1" d="M17,30.08L35,30.08"/>
	<path class="st1" d="M17,34.08L33,34.08"/>
</svg>