<svg xmlns="http://www.w3.org/2000/svg" width="624.04" height="485.98" viewBox="0 0 624.04 485.98">
	<style type="text/css">
		.st0{fill:#242424;}
	</style>
	<path class="st0" d="M152.68,430.22L471.13,430.22L585.98,349.01L37.83,349.01ZM474.03,448.47L149.78,448.47C147.89,448.47 146.06,447.89 144.51,446.79L3.85,347.33C0.61,345.04 -0.77,340.91 0.42,337.12C1.63,333.33 5.15,330.76 9.12,330.76L614.69,330.76C618.66,330.76 622.18,333.33 623.39,337.12C624.59,340.91 623.2,345.04 619.96,347.33L479.3,446.79C477.75,447.89 475.92,448.47 474.03,448.47"/>
	<path class="st0" d="M462.97 -37.51L158.91 -37.51L158.91 -18.24L462.97 -18.24ZM472.09,0L149.78,0C144.75,0 140.66,-4.08 140.66,-9.12L140.66,-46.63C140.66,-51.67 144.75,-55.76 149.78,-55.76L472.09,-55.76C477.13,-55.76 481.22,-51.67 481.22,-46.63L481.22,-9.12C481.22,-4.08 477.13,0 472.09,0"/>
	<path class="st0" d="M607.5,339.9C607.5,344.95 603.42,349.02 598.37,349.02C593.32,349.02 589.25,344.95 589.25,339.9C589.25,238.49 506.76,156.01 405.36,156.01C392.65,156.01 380.3,157.29 368.32,159.72C362.17,161 356.21,162.58 350.31,164.4C321.3,173.53 295.38,189.65 274.52,210.76C270.26,215.08 266.19,219.64 262.35,224.44C256.21,232.05 250.67,240.14 245.81,248.65C242.71,253.95 239.91,259.48 237.41,265.14C232.48,276.09 228.59,287.64 225.98,299.63C223.73,309.48 222.26,319.58 221.78,329.98L221.78,330.1C221.72,330.29 221.72,330.53 221.72,330.77C221.54,333.81 221.47,336.85 221.47,339.9C221.47,344.95 217.34,349.02 212.35,349.02C207.3,349.02 203.23,344.95 203.23,339.9C203.23,336.85 203.29,333.81 203.41,330.77C203.83,322.32 204.69,313.98 206.09,305.77C207.18,299.32 208.64,292.94 210.34,286.67C213.26,275.84 217.16,265.38 221.78,255.34C224.33,249.81 227.13,244.39 230.17,239.16C235.1,230.59 240.64,222.37 246.78,214.65C250.61,209.78 254.69,205.16 258.95,200.66C274.76,184.05 293.31,170.06 314,159.6C319.41,156.86 324.88,154.37 330.54,152.06C336.26,149.8 342.16,147.74 348.12,145.97C353.9,144.27 359.86,142.81 365.82,141.65C378.6,139.1 391.8,137.76 405.36,137.76C516.8,137.76 607.5,228.4 607.5,339.9"/>
	<path class="st0" d="M282.62,330.76L528.1,330.76C523.41,267.14 470.15,216.81 405.36,216.81C340.56,216.81 287.3,267.14 282.62,330.76M537.55,349.01L273.16,349.01C268.12,349.01 264.03,344.92 264.03,339.88C264.03,261.96 327.43,198.56 405.36,198.56C483.28,198.56 546.68,261.96 546.68,339.88C546.68,344.92 542.59,349.01 537.55,349.01"/>
	<path class="st0" d="M348.47,330.76L462.24,330.76C457.86,303.32 434.02,282.27 405.36,282.27C376.69,282.27 352.86,303.32 348.47,330.76M472.09,349.01L338.62,349.01C333.59,349.01 329.5,344.92 329.5,339.88C329.5,298.06 363.53,264.03 405.36,264.03C447.18,264.03 481.22,298.06 481.22,339.88C481.22,344.92 477.13,349.01 472.09,349.01"/>
	<path class="st0" d="M258.95,200.66C254.69,205.16 250.61,209.78 246.78,214.65C226.83,203.94 204.02,197.86 179.81,197.86C101.52,197.86 37.77,261.61 37.77,339.9C37.77,344.95 33.69,349.02 28.65,349.02C23.66,349.02 19.52,344.95 19.52,339.9C19.52,251.51 91.42,179.61 179.81,179.61C208.58,179.61 235.59,187.28 258.95,200.66"/>
	<path class="st0" d="M230.17,239.16C227.13,244.39 224.34,249.81 221.78,255.34C209.13,249.02 194.83,245.49 179.81,245.49C130.84,245.49 90.45,282.96 85.89,330.77L119.1,330.77C118.67,333.75 118.43,336.79 118.43,339.9C118.43,344.95 122.51,349.02 127.55,349.02L76.27,349.02C71.29,349.02 67.15,344.95 67.15,339.9C67.15,277.79 117.7,227.24 179.81,227.24C197.87,227.24 215.03,231.56 230.17,239.16"/>
	<path class="st0" d="M210.34,286.67C208.64,292.94 207.18,299.32 206.09,305.77C198.84,300.11 189.72,296.77 179.81,296.77C159.12,296.77 141.85,311.37 137.65,330.77L119.1,330.77C123.48,301.21 149.03,278.52 179.81,278.52C190.94,278.52 201.34,281.5 210.34,286.67"/>
	<path class="st0" d="M365.82,141.65C359.86,142.81 353.9,144.27 348.12,145.97C337.78,95.85 293.26,57.95 240.09,57.95C196.48,57.95 158.76,83.38 140.82,120.18C137.83,115.01 134.25,109.6 130.05,104C129.81,103.7 129.56,103.39 129.32,103.09C151.7,65.19 193.01,39.7 240.09,39.7C301.83,39.7 353.6,83.5 365.82,141.65"/>
	<path class="st0" d="M323.29,163.89C318.32,164.71 313.62,161.35 312.8,156.38C306.25,116.86 268.78,90.03 229.25,96.57C189.73,103.12 162.9,140.59 169.45,180.11C170.27,185.09 166.91,189.78 161.94,190.61C156.97,191.43 152.27,188.07 151.44,183.09C143.26,133.65 176.82,86.75 226.27,78.57C275.72,70.38 322.61,103.95 330.8,153.4C331.62,158.37 328.26,163.07 323.29,163.89"/>
	<path class="st0" d="M603.44,22.73C578.76,31.81 528.24,52.91 504.48,81.09C490.21,98.01 483.09,112.48 483.31,124.1C483.47,132.94 487.91,140.73 497.26,148.62C505.18,155.29 512.56,158.54 519.83,158.54C532.3,158.54 546.69,148.97 562.6,130.11C586.39,101.9 598.66,48.58 603.44,22.73M519.83,176.78C508.07,176.78 496.84,172.13 485.5,162.56C472.01,151.2 465.33,138.72 465.06,124.44C464.75,108.04 473.08,90.01 490.53,69.32C525.96,27.31 608.72,1.47 612.23,0.4C615.19,-0.5 618.43,0.14 620.79,2.14C623.17,4.15 624.37,7.21 623.96,10.29C623.49,13.93 611.98,99.87 576.55,141.88C556.74,165.37 538.19,176.78 519.83,176.78"/>
	<path class="st0" d="M491.37,164.71C489.3,164.71 487.21,164.01 485.5,162.56C481.64,159.31 481.16,153.56 484.41,149.71L570.68,47.41C573.93,43.56 579.69,43.06 583.54,46.32C587.39,49.57 587.88,55.32 584.63,59.17L498.35,161.47C496.55,163.61 493.97,164.71 491.37,164.71"/>
	<path class="st0" d="M422.63,65.06C407.35,65.06 394.92,77.5 394.92,92.78C394.92,108.06 407.35,120.5 422.63,120.5C437.91,120.5 450.35,108.06 450.35,92.78C450.35,77.5 437.91,65.06 422.63,65.06M422.63,138.75C397.29,138.75 376.67,118.13 376.67,92.78C376.67,67.43 397.29,46.82 422.63,46.82C447.98,46.82 468.59,67.43 468.59,92.78C468.59,118.13 447.98,138.75 422.63,138.75"/>
	<path class="st0" d="M240.08,121.22C224.79,121.22 212.36,133.65 212.36,148.93C212.36,164.22 224.79,176.65 240.08,176.65C255.36,176.65 267.8,164.22 267.8,148.93C267.8,133.65 255.36,121.22 240.08,121.22M240.08,194.9C214.73,194.9 194.11,174.28 194.11,148.93C194.11,123.59 214.73,102.97 240.08,102.97C265.43,102.97 286.04,123.59 286.04,148.93C286.04,174.28 265.43,194.9 240.08,194.9"/>
	<path class="st0" d="M54.62,160.57C32.48,131.13 23.23,77.18 19.95,51.08C44.1,61.54 93.31,85.51 115.45,114.95C117.21,117.26 118.8,119.51 120.25,121.76C126.09,130.34 130.05,138.25 132.24,145.24C133.82,150.29 134.43,154.91 134.13,159.11C133.64,165.56 130.9,171.28 125.67,176.75C123.72,178.82 121.47,180.77 118.8,182.77C116.12,184.78 113.57,186.43 111.07,187.7C106.21,190.26 101.64,191.47 97.14,191.47C84.24,191.47 69.95,181.07 54.62,160.57M152.01,150.6C150.85,141.23 147.2,131.13 140.82,120.18C137.83,115.01 134.25,109.6 130.05,104C129.81,103.7 129.56,103.39 129.32,103.09C95.86,59.66 15.87,29.55 12.47,28.27C9.55,27.17 6.26,27.66 3.77,29.55C1.33,31.37 -0.05,34.35 0.18,37.45C0.42,41.1 6.99,127.6 40.02,171.52C56.14,193.05 71.96,205.4 87.96,208.69C91,209.42 94.04,209.72 97.14,209.72C107.6,209.72 117.82,205.95 128.47,198.23C128.89,197.98 129.32,197.68 129.74,197.37C135.46,193.12 140.02,188.61 143.55,183.81C146.59,179.67 148.79,175.41 150.31,170.85L150.31,170.79C151.34,167.51 152.07,164.04 152.31,160.51C152.56,157.29 152.43,154 152.01,150.6"/>
	<path class="st0" d="M124.26,199.22C121.48,199.22 118.74,197.96 116.95,195.57L36.65,88.52C33.63,84.49 34.44,78.77 38.47,75.74C42.52,72.72 48.23,73.53 51.25,77.57L131.55,184.62C134.58,188.65 133.76,194.37 129.73,197.39C128.08,198.62 126.16,199.22 124.26,199.22"/>
</svg>