<svg xmlns="http://www.w3.org/2000/svg" width="38" height="50" viewBox="0 0 38 50">
	<style type="text/css">
		.st0{stroke:#242424;fill:none;stroke-width:2;stroke-linecap:round;stroke-linejoin:round;}
	</style>
	<path class="st0" d="M7,16C3.68,16 1,13.31 1,10C1,6.68 3.68,4 7,4"/>
	<path class="st0" d="M7,16L32,16C34.76,16 37,18.23 37,21L37,44C37,46.76 34.76,49 32,49L7,49C3.68,49 1,46.31 1,43L1,10"/>
	<path class="st0" d="M27,4L32,4C34.76,4 37,6.23 37,9L37,14.76"/>
	<path class="st0" d="M7,4L22,4"/>
	<path class="st0" d="M18,8L31.27,8"/>
	<path class="st0" d="M8.27,8L12.99,8"/>
	<path class="st0" d="M8.27,12L31.27,12"/>
	<path class="st0" d="M24.5,1C23.11,1 22,2.11 22,3.5L22,8L27,8L27,3.5C27,2.11 25.88,1 24.5,1Z"/>
	<path class="st0" d="M15.5,5C14.11,5 13,6.11 13,7.5L13,12L18,12L18,7.5C18,6.11 16.88,5 15.5,5Z"/>
	<path class="st0" d="M22.88,23.33C22.21,21.95 20.77,21 19.1,21C17.43,21 15.99,21.95 15.32,23.33C15.29,23.33 15.27,23.32 15.24,23.32C12.94,23.32 11.06,24.98 11.06,27.03C11.06,28.9 12.63,30.44 14.66,30.69L15.2,35.02C15.24,35.56 15.68,36 16.19,36L22.03,36C22.54,36 22.98,35.56 23.02,35.02L23.56,30.67C25.51,30.36 26.99,28.85 26.99,27.03C26.99,25 25.16,23.36 22.88,23.33Z"/>
	<path class="st0" d="M16,39L22,39"/>
	<path class="st0" d="M17,42L21,42"/>
</svg>