<?xml version="1.0" standalone="no"?>
<!DOCTYPE svg PUBLIC "-//W3C//DTD SVG 20010904//EN"
 "http://www.w3.org/TR/2001/REC-SVG-20010904/DTD/svg10.dtd">
<svg version="1.0" xmlns="http://www.w3.org/2000/svg"
 width="162.000000pt" height="180.000000pt" viewBox="0 0 162.000000 180.000000"
 preserveAspectRatio="xMidYMid meet">
<metadata>
Created by potrace 1.10, written by Peter Selinger 2001-2011
</metadata>
<g transform="translate(0.000000,180.000000) scale(0.100000,-0.100000)"
fill="#000000" stroke="none">
<path d="M140 1785 c0 -7 -8 -18 -17 -24 -15 -8 -18 -23 -16 -95 l2 -86 -42 0
c-61 0 -69 -8 -65 -71 l3 -54 50 -5 50 -5 0 -145 0 -145 -30 2 c-69 4 -75 -2
-75 -67 l0 -59 52 -3 53 -3 0 -145 0 -145 -35 -1 c-73 -2 -70 1 -70 -63 0 -52
2 -59 22 -64 12 -4 33 -4 46 0 13 3 27 1 31 -5 3 -5 6 -72 6 -149 l0 -138 -53
-3 -52 -3 0 -58 c0 -52 3 -59 21 -64 12 -3 35 -3 50 0 33 6 32 9 33 -89 1 -55
5 -70 21 -82 17 -13 115 -15 728 -16 698 0 707 0 727 20 12 12 25 18 30 15 7
-4 10 305 10 854 0 849 0 861 -20 861 -20 0 -44 32 -33 44 3 3 -316 6 -710 6
-620 0 -717 -2 -717 -15z m1407 -59 c4 -4 5 -1668 0 -1672 -1 -2 -310 -5 -685
-7 -474 -2 -685 0 -691 7 -5 6 -11 35 -15 64 -8 61 6 69 45 24 61 -68 173 -65
236 6 29 33 33 44 33 95 0 48 -5 66 -27 96 -67 93 -161 96 -248 9 -15 -16 -30
-28 -34 -28 -3 0 -6 61 -6 135 0 145 5 158 45 108 20 -26 89 -63 117 -63 31 0
103 42 128 73 34 46 36 143 3 188 -32 43 -82 69 -133 69 -40 0 -105 -26 -105
-42 0 -8 -41 -48 -49 -48 -3 0 -6 61 -6 135 0 143 6 158 42 111 20 -25 92 -66
116 -66 32 0 106 42 131 74 35 47 37 141 4 187 -63 84 -190 93 -246 17 -7 -10
-21 -22 -30 -27 -16 -8 -17 2 -17 125 0 145 5 157 48 108 65 -76 163 -74 234
5 30 33 33 42 33 99 0 71 -20 108 -78 142 -59 35 -152 19 -190 -32 -7 -10 -22
-22 -32 -28 -18 -10 -19 -7 -13 57 3 38 9 73 14 78 5 7 227 10 690 8 376 -2
684 -5 686 -7z m-1162 -138 c26 -27 43 -92 26 -102 -6 -4 -11 -15 -11 -25 0
-24 -53 -61 -88 -61 -29 0 -91 43 -76 53 5 3 37 5 71 5 73 0 83 5 83 40 0 65
-7 71 -78 74 -69 3 -92 20 -50 38 36 15 96 5 123 -22z m-57 -63 c12 -3 22 -12
22 -20 0 -13 -24 -15 -149 -15 -140 0 -182 8 -147 27 17 9 240 16 274 8z m58
-359 c26 -25 42 -90 25 -100 -6 -4 -11 -15 -11 -25 0 -25 -54 -61 -93 -61 -41
0 -92 45 -63 56 9 3 31 4 49 0 43 -8 91 6 95 28 2 10 1 33 -3 52 l-6 34 -64 0
c-52 0 -65 3 -65 15 0 39 98 40 136 1z m-83 -66 c35 0 47 -4 47 -15 0 -13 -21
-15 -150 -13 -165 3 -203 19 -68 29 46 3 92 4 103 2 11 -1 41 -3 68 -3z m84
-354 c25 -25 40 -90 24 -100 -6 -4 -11 -15 -11 -24 0 -9 -12 -27 -27 -39 -36
-31 -92 -31 -121 0 -12 13 -20 26 -16 29 3 4 29 4 58 1 85 -9 110 18 90 95 -6
20 -12 22 -71 22 -55 0 -64 2 -61 17 7 37 97 36 135 -1z m-74 -66 c25 0 37 -5
37 -14 0 -10 -18 -15 -67 -17 -96 -6 -233 4 -233 16 0 11 134 24 190 19 19 -2
52 -4 73 -4z m73 -353 c24 -25 40 -92 24 -102 -5 -3 -10 -13 -10 -22 0 -58
-105 -86 -148 -40 -12 13 -20 26 -16 29 3 4 29 4 58 1 68 -7 96 7 96 48 0 57
-14 69 -80 69 -43 0 -60 4 -60 13 0 22 11 27 64 27 40 0 56 -5 72 -23z m-90
-67 c40 0 54 -4 54 -14 0 -11 -17 -15 -67 -18 -97 -4 -233 5 -233 17 0 9 150
25 178 18 8 -2 38 -3 68 -3z"/>
<path d="M528 1499 c-24 -13 -23 -36 1 -49 21 -11 868 -15 909 -4 26 7 31 48
6 58 -28 11 -898 6 -916 -5z"/>
<path d="M970 1120 c-239 -3 -441 -9 -447 -13 -18 -11 -16 -27 4 -43 14 -11
108 -13 460 -14 243 0 448 3 457 6 27 11 20 51 -11 61 -16 4 -224 6 -463 3z"/>
<path d="M528 719 c-23 -13 -23 -36 1 -48 21 -12 886 -16 914 -5 26 9 22 50
-5 58 -41 10 -892 6 -910 -5z"/>
<path d="M528 329 c-24 -13 -23 -36 1 -49 21 -11 887 -15 915 -4 25 10 20 51
-6 58 -41 10 -892 6 -910 -5z"/>
</g>
</svg>
