<svg xmlns="http://www.w3.org/2000/svg" width="601.16" height="592.04" viewBox="0 0 601.16 592.04">
	<style type="text/css">
		.st0{fill:#242424;}
	</style>
	<path class="st0" d="M365.54,53.63C382.17,88.3 411.78,135.9 460.68,174.18L493.04,158.93C467.45,141.25 411.79,100.85 365.54,53.63M459.53,193.93C457.58,193.93 455.65,193.31 454.04,192.09C359.76,121.02 330.87,15.92 329.69,11.48C328.57,7.28 330.56,2.87 334.46,0.95C338.34,-0.97 343.07,0.1 345.72,3.54C404.33,79.35 511.68,149.62 516.9,153.01C519.75,154.83 521.4,158.13 521.08,161.56C520.73,165.31 518.12,168.46 514.5,169.49C513.53,169.77 512.55,170.06 511.59,170.36L463.42,193.06C462.18,193.64 460.85,193.93 459.53,193.93"/>
	<path class="st0" d="M485.69,182.57C485.48,185.26 487.62,192.59 492.03,198.38C497.24,205.22 504.68,209.42 513.3,214.29C519.62,217.85 526.15,221.54 532.69,226.72C541.99,234.06 553.58,243.2 560.05,255.93C563.06,261.87 564.37,268.07 565.54,273.55C566.4,277.64 567.22,281.51 568.62,284.88C569.62,287.29 570.49,288.72 571.09,289.55C574.64,286.32 580.36,275.26 582.32,265.95C584.89,253.82 578.38,246.72 566.65,235.21C562.99,231.62 559.21,227.91 555.72,223.76C550.97,218.13 546.63,212.21 542.43,206.48C532.18,192.51 522.46,179.25 508.28,171.93ZM570.69,308.47C562.71,308.47 556.35,302.89 551.77,291.88C549.72,286.94 548.68,282.06 547.69,277.34C546.66,272.53 545.7,267.99 543.78,264.2C539.13,255.05 529.69,247.6 521.36,241.03C515.94,236.73 510.04,233.4 504.33,230.18C494.82,224.81 484.99,219.26 477.51,209.43C473.02,203.53 465.27,189.33 468.04,177.77C469.25,172.69 472.41,168.7 476.92,166.53L504.39,153.59C506.73,152.49 509.44,152.43 511.83,153.45C532.61,162.24 545.08,179.24 557.14,195.69C561.16,201.17 565.32,206.84 569.68,212C572.61,215.49 575.93,218.74 579.43,222.18C591.39,233.92 604.94,247.22 600.18,269.72C598.05,279.78 588.07,308.47 570.69,308.47"/>
	<path class="st0" d="M69.83,145C70.69,145 71.54,145.12 72.37,145.36C86.97,149.6 96.83,159.01 100.14,171.87C104.15,187.47 97.95,206.34 84.35,219.94L56.17,248.12C41.41,262.88 41.41,286.91 56.17,301.67L317.21,562.7C324.35,569.85 333.86,573.79 343.98,573.79C354.1,573.79 363.61,569.85 370.76,562.7L525.82,407.65C540.58,392.88 540.58,368.86 525.82,354.1L264.78,93.06C257.62,85.9 248.11,81.96 238,81.96C227.9,81.96 218.39,85.9 211.23,93.06L183.23,121.06C172.6,131.69 158.28,138.03 144.91,138.03C127.36,138.03 113.77,127.1 108.55,108.78C108.22,107.63 108.12,106.42 108.26,105.23C109.83,91.55 105.13,78.11 95.37,68.34C86.83,59.8 75.48,55.09 63.41,55.09C51.34,55.09 39.99,59.8 31.45,68.34C22.93,76.86 18.24,88.19 18.24,100.25C18.25,112.32 22.96,123.67 31.49,132.21C41.29,142.01 55.01,146.73 68.73,145.07C69.09,145.02 69.46,145 69.83,145M343.98,592.04C328.99,592.04 314.89,586.2 304.3,575.61L43.27,314.57C21.39,292.7 21.39,257.1 43.27,235.22L71.45,207.04C80.29,198.19 84.82,185.59 82.46,176.41C80.89,170.3 76.33,165.93 68.9,163.4C50.07,165.07 31.87,158.39 18.59,145.11C6.61,133.13 0,117.2 0,100.26C0,83.32 6.58,67.4 18.55,55.43C30.54,43.45 46.47,36.84 63.41,36.84C80.35,36.84 96.28,43.45 108.27,55.43C121.53,68.69 128.14,86.79 126.58,105.35C129.77,114.93 135.93,119.79 144.91,119.79C153.42,119.79 163.15,115.33 170.33,108.15L198.33,80.15C208.93,69.55 223.02,63.71 238,63.71C252.99,63.71 267.08,69.55 277.68,80.15L538.72,341.19C560.6,363.06 560.6,398.67 538.72,420.55L383.66,575.61C373.06,586.2 358.97,592.04 343.98,592.04"/>
	<path class="st0" d="M63.41,81.73C58.44,81.73 53.78,83.66 50.27,87.17C43.06,94.38 43.08,106.14 50.32,113.38C57.33,120.39 69.49,120.39 76.49,113.38C80.01,109.87 81.94,105.21 81.95,100.26C81.96,95.32 80.04,90.66 76.54,87.17C73.03,83.66 68.37,81.73 63.41,81.73M63.41,137.06C53.6,137.06 44.37,133.24 37.42,126.29C23.07,111.93 23.04,88.6 37.37,74.26C44.32,67.31 53.57,63.48 63.41,63.48C73.25,63.48 82.49,67.31 89.44,74.26C96.4,81.22 100.21,90.46 100.2,100.29C100.18,110.1 96.35,119.34 89.4,126.29C82.45,133.24 73.22,137.06 63.41,137.06"/>
	<path class="st0" d="M300.19,263.24C255.92,263.24 208.61,279.94 208.61,326.82C208.61,370.46 249.69,405.97 300.19,405.97C350.67,405.97 391.75,370.46 391.75,326.82C391.75,279.94 344.45,263.24 300.19,263.24M300.19,424.22C239.63,424.22 190.37,380.52 190.37,326.82C190.37,277.11 233.48,244.99 300.19,244.99C366.9,244.99 410,277.11 410,326.82C410,380.52 360.74,424.22 300.19,424.22"/>
	<path class="st0" d="M249.58,329.08C248.73,329.08 247.87,328.96 247.03,328.71C243.67,327.74 241.16,324.92 240.58,321.47C237.11,300.78 255.64,273.19 266.98,263.56C277.55,254.6 287.25,247.17 287.65,246.86C290.76,244.5 295.02,244.37 298.26,246.52C301.5,248.69 303.01,252.68 302.02,256.45C295.14,282.38 260.31,321.65 256.37,326.05C254.61,328.01 252.13,329.08 249.58,329.08"/>
	<path class="st0" d="M260.29,254.68C236.53,254.68 212.3,251.15 211.28,251C207.81,250.49 204.95,248.04 203.9,244.7C202.86,241.35 203.82,237.7 206.38,235.31C218.38,224.1 240.11,222.89 248.89,222.89C256.6,222.89 263.83,223.75 269.23,225.31C282.54,229.16 294.09,233.13 294.57,233.3C298.26,234.58 300.73,238.05 300.71,241.95C300.7,245.86 298.21,249.32 294.52,250.57C286.34,253.34 275.15,254.68 260.29,254.68"/>
	<path class="st0" d="M340.87,254.68C317.11,254.68 292.89,251.15 291.86,251C288.39,250.49 285.53,248.04 284.49,244.7C283.44,241.35 284.4,237.7 286.96,235.31C298.95,224.1 320.68,222.89 329.47,222.89C337.18,222.89 344.41,223.75 349.81,225.31C363.11,229.16 374.66,233.13 375.14,233.3C378.83,234.58 381.3,238.05 381.29,241.95C381.28,245.86 378.79,249.32 375.09,250.57C366.91,253.34 355.72,254.68 340.87,254.68"/>
	<path class="st0" d="M355.97,305.32C355.44,305.32 354.91,305.28 354.38,305.18C327.97,300.52 285.89,269.13 281.18,265.57C278.39,263.45 277.05,259.92 277.74,256.49C278.44,253.05 281.03,250.32 284.43,249.45C287,248.79 289.83,248.45 292.82,248.45C311.73,248.45 334.89,261.48 344.34,270.88C352.5,278.99 359.54,286.59 361.89,289.16C363.92,290.84 365.21,293.37 365.21,296.2C365.21,301.24 361.13,305.32 356.08,305.32C356.03,305.32 356.01,305.32 355.97,305.32"/>
</svg>